<svg width="1200" height="520" viewBox="0 0 1200 520" fill="none" xmlns="http://www.w3.org/2000/svg">
  <defs>
    <linearGradient id="bg" x1="0" y1="0" x2="1200" y2="520" gradientUnits="userSpaceOnUse">
      <stop stop-color="#F8FAFC"/>
      <stop offset="1" stop-color="#EEF2FF"/>
    </linearGradient>
  </defs>
  <rect width="1200" height="520" rx="28" fill="url(#bg)"/>

  <text x="80" y="78" fill="#0F172A" font-family="Arial, Helvetica, sans-serif" font-size="32" font-weight="800">Memory consolidation</text>
  <text x="80" y="112" fill="#475569" font-family="Arial, Helvetica, sans-serif" font-size="18">From raw daily traces to durable long-term cognition</text>

  <rect x="86" y="176" width="190" height="104" rx="22" fill="#FFFFFF" stroke="#BFDBFE" stroke-width="2"/>
  <text x="116" y="216" fill="#1E3A8A" font-family="Arial, Helvetica, sans-serif" font-size="21" font-weight="800">Raw experience</text>
  <text x="116" y="246" fill="#334155" font-family="Arial, Helvetica, sans-serif" font-size="16">Daily memory entries,</text>
  <text x="116" y="270" fill="#334155" font-family="Arial, Helvetica, sans-serif" font-size="16">logs, reflections</text>

  <rect x="330" y="176" width="190" height="104" rx="22" fill="#FFFFFF" stroke="#C4B5FD" stroke-width="2"/>
  <text x="360" y="216" fill="#5B21B6" font-family="Arial, Helvetica, sans-serif" font-size="21" font-weight="800">Scoring</text>
  <text x="360" y="246" fill="#334155" font-family="Arial, Helvetica, sans-serif" font-size="16">importance ≥ 7</text>
  <text x="360" y="270" fill="#334155" font-family="Arial, Helvetica, sans-serif" font-size="16">becomes candidate</text>

  <rect x="574" y="176" width="190" height="104" rx="22" fill="#FFFFFF" stroke="#A7F3D0" stroke-width="2"/>
  <text x="604" y="216" fill="#065F46" font-family="Arial, Helvetica, sans-serif" font-size="21" font-weight="800">Classification</text>
  <text x="604" y="246" fill="#334155" font-family="Arial, Helvetica, sans-serif" font-size="16">fact / decision /</text>
  <text x="604" y="270" fill="#334155" font-family="Arial, Helvetica, sans-serif" font-size="16">rule / event / doc / log</text>

  <rect x="818" y="176" width="190" height="104" rx="22" fill="#FFFFFF" stroke="#FBCFE8" stroke-width="2"/>
  <text x="848" y="216" fill="#9D174D" font-family="Arial, Helvetica, sans-serif" font-size="21" font-weight="800">Distillation</text>
  <text x="848" y="246" fill="#334155" font-family="Arial, Helvetica, sans-serif" font-size="16">Long-term value</text>
  <text x="848" y="270" fill="#334155" font-family="Arial, Helvetica, sans-serif" font-size="16">judgment + rewrite</text>

  <path d="M276 228H330" stroke="#94A3B8" stroke-width="3" stroke-linecap="round"/>
  <path d="M520 228H574" stroke="#94A3B8" stroke-width="3" stroke-linecap="round"/>
  <path d="M764 228H818" stroke="#94A3B8" stroke-width="3" stroke-linecap="round"/>
  <path d="M322 220L330 228L322 236" fill="#94A3B8"/>
  <path d="M566 220L574 228L566 236" fill="#94A3B8"/>
  <path d="M810 220L818 228L810 236" fill="#94A3B8"/>

  <rect x="340" y="350" width="520" height="110" rx="24" fill="#0F172A"/>
  <text x="372" y="393" fill="#FFFFFF" font-family="Arial, Helvetica, sans-serif" font-size="24" font-weight="800">MEMORY.md</text>
  <text x="372" y="425" fill="#CBD5E1" font-family="Arial, Helvetica, sans-serif" font-size="17">A compact cognition index: distilled rules, decisions, facts, and durable patterns.</text>

  <path d="M913 280C913 325 760 332 760 350" stroke="#64748B" stroke-width="3" stroke-dasharray="5 6"/>
  <path d="M668 280C668 325 540 332 540 350" stroke="#64748B" stroke-width="3" stroke-dasharray="5 6"/>
</svg>
