<svg width="1200" height="420" viewBox="0 0 1200 420" fill="none" xmlns="http://www.w3.org/2000/svg">
  <defs>
    <linearGradient id="bg" x1="0" y1="0" x2="1200" y2="420" gradientUnits="userSpaceOnUse">
      <stop stop-color="#0B1020"/>
      <stop offset="1" stop-color="#141B34"/>
    </linearGradient>
    <linearGradient id="glow" x1="180" y1="80" x2="920" y2="320" gradientUnits="userSpaceOnUse">
      <stop stop-color="#7DD3FC" stop-opacity="0.75"/>
      <stop offset="0.45" stop-color="#A78BFA" stop-opacity="0.55"/>
      <stop offset="1" stop-color="#34D399" stop-opacity="0.35"/>
    </linearGradient>
    <linearGradient id="line" x1="0" y1="0" x2="1" y2="1">
      <stop stop-color="#93C5FD"/>
      <stop offset="1" stop-color="#A78BFA"/>
    </linearGradient>
    <filter id="blur" x="0" y="0" width="1200" height="420" filterUnits="userSpaceOnUse" color-interpolation-filters="sRGB">
      <feGaussianBlur stdDeviation="42"/>
    </filter>
  </defs>

  <rect width="1200" height="420" rx="28" fill="url(#bg)"/>

  <g opacity="0.55" filter="url(#blur)">
    <ellipse cx="270" cy="100" rx="170" ry="90" fill="#60A5FA"/>
    <ellipse cx="920" cy="120" rx="210" ry="120" fill="#8B5CF6"/>
    <ellipse cx="790" cy="325" rx="220" ry="110" fill="#10B981"/>
  </g>

  <rect x="40" y="40" width="1120" height="340" rx="24" fill="rgba(255,255,255,0.02)" stroke="rgba(255,255,255,0.08)"/>

  <g opacity="0.8">
    <path d="M725 112H1005" stroke="url(#line)" stroke-width="2" stroke-linecap="round"/>
    <path d="M725 176H1036" stroke="url(#line)" stroke-width="2" stroke-linecap="round" opacity="0.85"/>
    <path d="M725 240H994" stroke="url(#line)" stroke-width="2" stroke-linecap="round" opacity="0.7"/>
    <path d="M725 304H958" stroke="url(#line)" stroke-width="2" stroke-linecap="round" opacity="0.55"/>
  </g>

  <g>
    <rect x="92" y="94" width="118" height="34" rx="17" fill="rgba(125,211,252,0.12)" stroke="rgba(125,211,252,0.45)"/>
    <text x="151" y="116" text-anchor="middle" fill="#D8F3FF" font-family="Inter, Arial, sans-serif" font-size="14" font-weight="700">OpenClaw</text>

    <text x="92" y="188" fill="white" font-family="Inter, Arial, sans-serif" font-size="50" font-weight="800">Memory System</text>
    <text x="92" y="234" fill="#C7D2FE" font-family="Inter, Arial, sans-serif" font-size="24" font-weight="600">Biomimetic long-term cognition for OpenClaw agents</text>

    <text x="92" y="290" fill="#C9D3EA" font-family="Inter, Arial, sans-serif" font-size="18">Turn raw daily experience into a compact memory index</text>
    <text x="92" y="319" fill="#C9D3EA" font-family="Inter, Arial, sans-serif" font-size="18">through scoring, consolidation, governance, and gradual forgetting.</text>
  </g>

  <g>
    <rect x="742" y="88" width="314" height="244" rx="22" fill="rgba(6,10,24,0.48)" stroke="rgba(255,255,255,0.12)"/>

    <rect x="774" y="116" width="150" height="34" rx="12" fill="rgba(125,211,252,0.14)" stroke="rgba(125,211,252,0.35)"/>
    <text x="849" y="138" text-anchor="middle" fill="#E0F2FE" font-family="Inter, Arial, sans-serif" font-size="14" font-weight="700">daily memory</text>

    <rect x="878" y="171" width="146" height="34" rx="12" fill="rgba(167,139,250,0.16)" stroke="rgba(167,139,250,0.38)"/>
    <text x="951" y="193" text-anchor="middle" fill="#EDE9FE" font-family="Inter, Arial, sans-serif" font-size="14" font-weight="700">candidate scoring</text>

    <rect x="774" y="226" width="167" height="34" rx="12" fill="rgba(52,211,153,0.14)" stroke="rgba(52,211,153,0.36)"/>
    <text x="857" y="248" text-anchor="middle" fill="#D1FAE5" font-family="Inter, Arial, sans-serif" font-size="14" font-weight="700">memory consolidation</text>

    <rect x="864" y="281" width="160" height="34" rx="12" fill="rgba(244,114,182,0.14)" stroke="rgba(244,114,182,0.32)"/>
    <text x="944" y="303" text-anchor="middle" fill="#FCE7F3" font-family="Inter, Arial, sans-serif" font-size="14" font-weight="700">governance & pruning</text>

    <path d="M925 150C925 163 951 161 951 171" stroke="rgba(255,255,255,0.55)" stroke-width="2" stroke-dasharray="4 5"/>
    <path d="M944 205C944 216 857 214 857 226" stroke="rgba(255,255,255,0.55)" stroke-width="2" stroke-dasharray="4 5"/>
    <path d="M941 260C941 271 944 270 944 281" stroke="rgba(255,255,255,0.55)" stroke-width="2" stroke-dasharray="4 5"/>
  </g>
</svg>
