<svg width="1200" height="420" viewBox="0 0 1200 420" fill="none" xmlns="http://www.w3.org/2000/svg">
  <defs>
    <linearGradient id="bg" x1="0" y1="0" x2="1200" y2="420" gradientUnits="userSpaceOnUse">
      <stop stop-color="#0B1220"/>
      <stop offset="1" stop-color="#182338"/>
    </linearGradient>
    <linearGradient id="line" x1="0" y1="0" x2="1" y2="1">
      <stop stop-color="#93C5FD"/>
      <stop offset="1" stop-color="#C4B5FD"/>
    </linearGradient>
  </defs>

  <rect width="1200" height="420" rx="28" fill="url(#bg)"/>
  <circle cx="202" cy="92" r="134" fill="#1D4ED8" opacity="0.16"/>
  <circle cx="958" cy="108" r="170" fill="#7C3AED" opacity="0.14"/>
  <circle cx="862" cy="336" r="180" fill="#059669" opacity="0.12"/>

  <rect x="40" y="40" width="1120" height="340" rx="24" fill="#FFFFFF" opacity="0.03" stroke="#FFFFFF" stroke-opacity="0.10"/>

  <rect x="92" y="94" width="124" height="34" rx="17" fill="#7DD3FC" fill-opacity="0.14" stroke="#7DD3FC" stroke-opacity="0.38"/>
  <text x="154" y="116" text-anchor="middle" fill="#E0F2FE" font-family="Arial, Helvetica, sans-serif" font-size="14" font-weight="700">OpenClaw</text>

  <text x="92" y="188" fill="#FFFFFF" font-family="Arial, Helvetica, sans-serif" font-size="50" font-weight="800">Memory System</text>
  <text x="92" y="234" fill="#C7D2FE" font-family="Arial, Helvetica, sans-serif" font-size="24" font-weight="700">Biomimetic long-term cognition for OpenClaw agents</text>
  <text x="92" y="290" fill="#CBD5E1" font-family="Arial, Helvetica, sans-serif" font-size="18">Short-term traces are distilled into durable rules, decisions, and memory structure.</text>
  <text x="92" y="320" fill="#CBD5E1" font-family="Arial, Helvetica, sans-serif" font-size="18">A calm, compact index instead of an ever-growing pile of logs.</text>

  <rect x="742" y="88" width="314" height="244" rx="22" fill="#081120" fill-opacity="0.56" stroke="#FFFFFF" stroke-opacity="0.12"/>

  <rect x="774" y="116" width="152" height="34" rx="12" fill="#7DD3FC" fill-opacity="0.14" stroke="#7DD3FC" stroke-opacity="0.32"/>
  <text x="850" y="138" text-anchor="middle" fill="#E0F2FE" font-family="Arial, Helvetica, sans-serif" font-size="14" font-weight="700">daily memory</text>

  <rect x="878" y="171" width="146" height="34" rx="12" fill="#C4B5FD" fill-opacity="0.14" stroke="#C4B5FD" stroke-opacity="0.32"/>
  <text x="951" y="193" text-anchor="middle" fill="#F5F3FF" font-family="Arial, Helvetica, sans-serif" font-size="14" font-weight="700">candidate scoring</text>

  <rect x="774" y="226" width="168" height="34" rx="12" fill="#6EE7B7" fill-opacity="0.14" stroke="#6EE7B7" stroke-opacity="0.32"/>
  <text x="858" y="248" text-anchor="middle" fill="#D1FAE5" font-family="Arial, Helvetica, sans-serif" font-size="14" font-weight="700">memory consolidation</text>

  <rect x="864" y="281" width="160" height="34" rx="12" fill="#F9A8D4" fill-opacity="0.14" stroke="#F9A8D4" stroke-opacity="0.28"/>
  <text x="944" y="303" text-anchor="middle" fill="#FCE7F3" font-family="Arial, Helvetica, sans-serif" font-size="14" font-weight="700">governance &amp; pruning</text>

  <path d="M926 150C926 163 951 160 951 171" stroke="#E2E8F0" stroke-opacity="0.55" stroke-width="2" stroke-dasharray="4 5"/>
  <path d="M944 205C944 216 858 214 858 226" stroke="#E2E8F0" stroke-opacity="0.55" stroke-width="2" stroke-dasharray="4 5"/>
  <path d="M944 260C944 271 944 270 944 281" stroke="#E2E8F0" stroke-opacity="0.55" stroke-width="2" stroke-dasharray="4 5"/>

  <path d="M726 112H1006" stroke="url(#line)" stroke-width="2" stroke-linecap="round"/>
  <path d="M726 176H1036" stroke="url(#line)" stroke-width="2" stroke-linecap="round" opacity="0.84"/>
  <path d="M726 240H994" stroke="url(#line)" stroke-width="2" stroke-linecap="round" opacity="0.68"/>
  <path d="M726 304H958" stroke="url(#line)" stroke-width="2" stroke-linecap="round" opacity="0.52"/>
</svg>
